<svg xmlns="http://www.w3.org/2000/svg" viewBox="0 0 500 500">
  <!-- Circle Background -->
  <circle cx="250" cy="250" r="240" fill="#0A192F"/>
  
  <!-- Optional subtle inner glow/border -->
  <circle cx="250" cy="250" r="238" fill="none" stroke="#00FF9F" stroke-width="1" opacity="0.3"/>
  
  <!-- CD Infinity Symbol - Static version -->
  <!-- Left C part -->
  <path d="M175,250 C120,320 120,180 175,250 C225,315 275,315 325,250"
        fill="none"
        stroke="#0A3A5C"
        stroke-width="30"
        stroke-linecap="round"
        stroke-linejoin="round"/>
  
  <!-- Right D part -->
  <path d="M325,250 C375,185 375,315 325,250 C275,185 225,185 175,250"
        fill="none"
        stroke="#0A3A5C"
        stroke-width="30"
        stroke-linecap="round"
        stroke-linejoin="round"/>
  
  <!-- Yellow C overlay -->
  <path d="M175,250 C120,320 120,180 175,250 C225,315 275,315 325,250"
        fill="none"
        stroke="#FFD100"
        stroke-width="18"
        stroke-linecap="round"
        stroke-linejoin="round"/>
  
  <!-- Yellow D overlay -->
  <path d="M325,250 C375,185 375,315 325,250 C275,185 225,185 175,250"
        fill="none"
        stroke="#FFD100"
        stroke-width="18"
        stroke-linecap="round"
        stroke-linejoin="round"/>
  
  <!-- Connecting Line (cyber green) -->
  <path d="M175,250 L325,250"
        fill="none"
        stroke="#00FF9F"
        stroke-width="12"
        stroke-linecap="round"/>
  
  <!-- Shield Icon in center -->
  <g transform="translate(250, 250) scale(0.5)">
    <!-- Lock Icon -->
    <rect x="-7" y="0" width="14" height="12" fill="#00FF9F" rx="2" ry="2"/>
    <rect x="-5" y="-5" width="10" height="8" fill="transparent" stroke="#00FF9F" stroke-width="2" rx="1" ry="1"/>
  </g>
</svg>